<svg xmlns="http://www.w3.org/2000/svg" width="512" height="512" viewBox="0 0 512 512" fill="none">
  <!-- Fond circulaire (Couleur Accent / Or : #e0bd3e) -->
  <circle cx="256" cy="256" r="256" fill="#e0bd3e"/>
  
  <!-- Icône QrCode (Couleur Primary / Bleu Foncé : #2f4858) -->
  <!-- On centre l'icône Lucide (en proportion 24x24) au milieu du cercle -->
  <g transform="translate(100, 100) scale(13)">
    <rect width="5" height="5" x="3" y="3" rx="1" stroke="#2f4858" stroke-width="1.5" stroke-linecap="round" stroke-linejoin="round"/>
    <rect width="5" height="5" x="16" y="3" rx="1" stroke="#2f4858" stroke-width="1.5" stroke-linecap="round" stroke-linejoin="round"/>
    <rect width="5" height="5" x="3" y="16" rx="1" stroke="#2f4858" stroke-width="1.5" stroke-linecap="round" stroke-linejoin="round"/>
    <path d="M21 16h-3a2 2 0 0 0-2 2v3" stroke="#2f4858" stroke-width="1.5" stroke-linecap="round" stroke-linejoin="round"/>
    <path d="M11 8v.01" stroke="#2f4858" stroke-width="1.5" stroke-linecap="round" stroke-linejoin="round"/>
    <path d="M11 16v.01" stroke="#2f4858" stroke-width="1.5" stroke-linecap="round" stroke-linejoin="round"/>
    <path d="M11 12v.01" stroke="#2f4858" stroke-width="1.5" stroke-linecap="round" stroke-linejoin="round"/>
    <path d="M11 20v.01" stroke="#2f4858" stroke-width="1.5" stroke-linecap="round" stroke-linejoin="round"/>
    <path d="M8 11h.01" stroke="#2f4858" stroke-width="1.5" stroke-linecap="round" stroke-linejoin="round"/>
    <path d="M16 11h.01" stroke="#2f4858" stroke-width="1.5" stroke-linecap="round" stroke-linejoin="round"/>
    <path d="M20 11h.01" stroke="#2f4858" stroke-width="1.5" stroke-linecap="round" stroke-linejoin="round"/>
    <path d="M8 8v.01" stroke="#2f4858" stroke-width="1.5" stroke-linecap="round" stroke-linejoin="round"/>
    <path d="M8 16v.01" stroke="#2f4858" stroke-width="1.5" stroke-linecap="round" stroke-linejoin="round"/>
    <path d="M8 20v.01" stroke="#2f4858" stroke-width="1.5" stroke-linecap="round" stroke-linejoin="round"/>
    <path d="M20 8v.01" stroke="#2f4858" stroke-width="1.5" stroke-linecap="round" stroke-linejoin="round"/>
  </g>
</svg>
